# xmcd
#
# Track frame offsets:
#	150
#	13507
#	27198
#	43596
#	57882
#	74945
#	88598
#	101452
#	117482
#	128978
#	144853
#	160519
#
# Disc length: 2333 seconds
#
# Revision: 1
# Processed by: cddbd v1.5.1PL0 Copyright (c) Steve Scherf et al.
# Submitted via: audiograbber 1.83.01
#
DISCID=9d091b0c
DTITLE=Livio Gomes - Caminhos
DYEAR=1900
DGENRE=
TTITLE0=A Luz Que Me Guia
TTITLE1=Eu Vou a Luta
TTITLE2=So Ficou o Adeus
TTITLE3=O Mestre
TTITLE4=Amor Contrariado
TTITLE5=Origens
TTITLE6=Seu Recado
TTITLE7=Garota Da Praia
TTITLE8=Reencontro
TTITLE9=No Clarear do Dia
TTITLE10=A Cancao Que Eu Fiz Pra Voce
TTITLE11=So Pro Te Amar
EXTD=
EXTT0=
EXTT1=
EXTT2=
EXTT3=
EXTT4=
EXTT5=
EXTT6=
EXTT7=
EXTT8=
EXTT9=
EXTT10=
EXTT11=
PLAYORDER=
